<svg version="1.1" xmlns="http://www.w3.org/2000/svg" xmlns:xlink="http://www.w3.org/1999/xlink" width="119.0414" height="87" viewBox="0,0,119.0414,87"><g transform="translate(-172.41847,-132.00235)"><g data-paper-data="{&quot;isPaintingLayer&quot;:true}" fill-rule="nonzero" stroke-linejoin="miter" stroke-miterlimit="10" stroke-dasharray="" stroke-dashoffset="0" style="mix-blend-mode: normal"><path d="M173.41847,218.00236v-85h117.0414v85z" fill="#9966ff" stroke="#000000" stroke-width="2" stroke-linecap="butt"/><text transform="translate(182.55469,162.25523) scale(0.5,0.5)" font-size="40" xml:space="preserve" fill="#ff6666" fill-rule="nonzero" stroke="none" stroke-width="1" stroke-linecap="butt" stroke-linejoin="miter" stroke-miterlimit="10" stroke-dasharray="" stroke-dashoffset="0" font-family="Sans Serif" font-weight="normal" text-anchor="start" style="mix-blend-mode: normal"><tspan x="0" dy="0">资料库&gt;</tspan></text><path d="M214.05594,175.50236c0,2.49003 -5.99454,4.5086 -13.38917,4.5086c-7.39463,0 -13.38917,-2.01857 -13.38917,-4.5086c0,-2.49003 5.99454,-4.5086 13.38917,-4.5086c7.39463,0 13.38917,2.01857 13.38917,4.5086z" fill="none" stroke="#000000" stroke-width="1.5" stroke-linecap="butt"/><path d="M187.00435,199.13834l0.27325,-24.04586" fill="none" stroke="#000000" stroke-width="1.5" stroke-linecap="round"/><path d="M213.50944,174.81924l0.81974,24.04586" fill="none" stroke="#000000" stroke-width="1.5" stroke-linecap="round"/><path d="M214.73908,200.36796c0,-2.00631 -1.46995,2.8593 -4.62853,5.32769c-2.42459,1.89479 -6.06868,1.36689 -9.44377,1.36689c-3.05541,0 -8.06938,-0.76305 -10.37651,-2.46865c-3.56144,-2.63287 -3.69579,-6.37812 -3.69579,-4.22593c0,3.54641 6.30037,6.42134 14.07229,6.42134c7.77191,0 14.07229,-2.87494 14.07229,-6.42134z" fill="none" stroke="#000000" stroke-width="1.5" stroke-linecap="butt"/><path d="M214.05594,184.51956c0,2.79185 -5.99454,5.05509 -13.38917,5.05509c-7.39463,0 -13.38917,-2.26324 -13.38917,-5.05509c0,-0.3234 0.6604,2.13326 3.55056,3.66206c2.36819,1.25269 6.68238,1.61303 9.57024,1.58258c3.42741,-0.03614 7.88657,-0.96166 10.41948,-2.34808c2.60684,-1.4269 3.23807,-3.30962 3.23807,-2.89656z" fill="#9966ff" stroke="#000000" stroke-width="2" stroke-linecap="butt"/><path d="M214.05594,192.25203c0,2.79185 -5.99454,5.05509 -13.38917,5.05509c-7.39463,0 -13.38917,-2.26324 -13.38917,-5.05509c0,-0.3234 0.6604,2.13326 3.55056,3.66206c2.36819,1.25269 6.68238,1.61303 9.57024,1.58258c3.42741,-0.03614 7.88657,-0.96166 10.41948,-2.34808c2.60684,-1.4269 3.23807,-3.30962 3.23807,-2.89656z" fill="#9966ff" stroke="#000000" stroke-width="2" stroke-linecap="butt"/></g></g></svg>